<?xml version="1.0" standalone="no"?><!DOCTYPE svg PUBLIC "-//W3C//DTD SVG 1.1//EN" "http://www.w3.org/Graphics/SVG/1.1/DTD/svg11.dtd"><svg t="1733214906103" class="icon" viewBox="0 0 1024 1024" version="1.1" xmlns="http://www.w3.org/2000/svg" p-id="5449" xmlns:xlink="http://www.w3.org/1999/xlink" width="200" height="200"><path d="M167.04 739.776l116.704-210.976a54.784 54.784 0 1 0-95.872-53.024L71.168 686.72a54.784 54.784 0 0 0 95.872 53.056m384.64 0l116.736-210.976a54.784 54.784 0 1 0-95.872-53.024l-116.736 210.944a54.784 54.784 0 0 0 95.872 53.056m-108.096-190.72l124.16-210.816a54.592 54.592 0 0 0-94.08-55.36l-124.16 210.816a54.592 54.592 0 0 0 94.08 55.36m384.896 0l124.16-210.816a54.592 54.592 0 0 0-94.08-55.36l-124.16 210.816a54.592 54.592 0 0 0 94.08 55.36" fill="#4CAF50" p-id="5450"></path></svg>